<?xml version="1.0" encoding="UTF-8" standalone="no"?>
<!-- Created with Inkscape (http://www.inkscape.org/) -->

<svg
   xmlns:dc="http://purl.org/dc/elements/1.1/"
   xmlns:cc="http://creativecommons.org/ns#"
   xmlns:rdf="http://www.w3.org/1999/02/22-rdf-syntax-ns#"
   xmlns:svg="http://www.w3.org/2000/svg"
   xmlns="http://www.w3.org/2000/svg"
   version="1.1"
   width="300"
   height="181.53934"
   id="svg2"
   xml:space="preserve"><metadata
     id="metadata8"><rdf:RDF><cc:Work
         rdf:about=""><dc:format>image/svg+xml</dc:format><dc:type
           rdf:resource="http://purl.org/dc/dcmitype/StillImage" /><dc:title></dc:title></cc:Work></rdf:RDF></metadata><defs
     id="defs6" /><g
     transform="matrix(1.25,0,0,-1.25,97.67725,122.4318)"
     id="g10"><g
       transform="matrix(0.28668218,0,0,0.28668218,-78.1418,-47.286036)"
       id="g12"><path
         d="m 562.73,465.93 c 10.801,18.008 32.403,21.601 50.399,25.203 14.406,3.605 28.801,-3.602 40.449,-10.75 9.004,-5.117 17.414,-12.024 24.719,-20.637 13.887,-14.48 21.726,-34.187 22.664,-53.629 -0.098,20.567 -7.988,41.793 -22.781,57.125 -7.325,8.574 -15.774,15.461 -24.778,20.578 -15.078,7.313 -29.472,14.512 -43.875,10.918 -18,-3.605 -35.996,-7.207 -46.797,-25.207 -7.199,-10.789 -10.8,-25.195 -10.8,-39.597 0,-0.852 0.047,-1.657 0.066,-2.493 0.188,14.024 3.723,27.973 10.734,38.489"
         id="path14"
         style="fill:#231f20;fill-opacity:1;fill-rule:nonzero;stroke:none" /><path
         d="m 592.32,423.801 c 12.137,-1.524 24.11,-7.852 32.969,-18.664 13.348,-12.324 15.82,-34.684 9.102,-52.602 8.816,17.621 6.777,41.606 -9.004,56.285 -8.907,10.782 -20.91,17.071 -33.067,18.594 -11.593,2.52 -22.382,-4.68 -33.195,-8.281 -7.195,-7.199 -10.801,-14.395 -14.402,-21.606 l 0,-3.589 c 3.601,7.195 7.207,14.394 14.402,21.589 10.813,3.606 21.602,10.813 33.195,8.274"
         id="path16"
         style="fill:#231f20;fill-opacity:1;fill-rule:nonzero;stroke:none" /><path
         d="m 551.93,393.938 c 7.195,7.195 14.394,10.8 26.629,7.773 9.543,-1.641 19.121,-7.063 26.418,-15.949 3.945,-11.641 12.558,-21.313 12.441,-33.063 0.723,5.578 -0.695,11.52 -0.695,16.039 -3.594,7.192 -10.789,14.399 -11.59,20.774 -7.336,8.847 -16.934,14.25 -26.485,15.879 -15.918,-0.653 -30.324,-4.258 -33.925,-18.653 -0.977,-2.437 -1.563,-4.867 -1.914,-7.293 1.687,5.379 4.609,9.989 9.121,14.493"
         id="path18"
         style="fill:#231f20;fill-opacity:1;fill-rule:nonzero;stroke:none" /><path
         d="m 527.301,365.227 c -0.461,-0.52 -1.477,-1.711 -2.512,-2.942 1.211,1.313 2.441,2.649 3.645,3.949 -0.364,-0.359 -0.793,-0.621 -1.133,-1.007 z m 52.605,5.601 c -14.636,12.942 -35.144,13.656 -45.828,1.582 -1.094,-1.234 -3.262,-3.59 -5.644,-6.176 10.906,10.883 30.097,9.922 44.265,-2.613 14.641,-12.945 17.844,-33.219 7.168,-45.293 -0.176,-0.203 -4.773,-4.937 -6.316,-6.695 -13.379,-15.129 -35.071,-16.895 -49.707,-3.945 -14.629,12.937 -15.645,35.703 -2.266,50.828 0.43,0.476 1.844,2.164 3.211,3.769 -3.301,-3.562 -6.277,-6.765 -6.816,-7.375 -13.368,-15.113 -12.352,-37.887 2.277,-50.828 14.629,-12.949 37.352,-11.18 50.742,3.945 0.742,0.852 3.086,3.211 3.594,3.606 1.269,0.957 11.406,12.676 12.488,13.894 10.676,12.082 7.473,32.344 -7.168,45.301"
         id="path20"
         style="fill:#ed1c24;fill-opacity:1;fill-rule:nonzero;stroke:none" /><path
         d="m 593.324,334.531 c 28.801,7.207 57.61,14.407 85.781,21.297 -13.445,-2.527 -27.187,-5.348 -41.464,-8.648 -15.516,-1.848 -29.911,-9.043 -44.317,-12.649 z m 109.219,44.649 c -1.621,-1.289 -6.063,-1.7 -8.23,-2.489 -32.59,-9.757 -64.993,-20.558 -97.383,-38.554 36.004,14.39 72,28.797 108.008,39.597 0,0 -3.614,0 -2.395,1.446 z M 596.93,348.938 c 35.215,21.113 77.254,35.386 113.269,54.847 -1.258,-0.441 -2.625,-0.789 -3.621,-1.226 C 668.93,384.934 629.32,370.527 596.93,348.938 z m -3.606,10.8 c 39.61,25.196 79.211,50.399 118.801,75.594 0,0 -3.594,0 -2.18,-0.144 -0.515,-0.704 -1.453,-0.852 -2.175,-1.301 -38.84,-23.75 -74.836,-48.953 -114.446,-74.149 z m 72.012,75.95 c 8.574,7.257 16.789,14.718 24.406,22.55 -8.047,-7.535 -16.25,-15.035 -24.406,-22.55 z m -75.613,-68.754 c 25.418,22.875 50.664,45.793 75.613,68.754 -25.965,-21.973 -54.598,-42.5 -75.613,-68.754 z m 102.91,94.179 c -0.918,-0.984 -1.953,-1.902 -2.891,-2.875 1.278,1.207 2.617,2.399 3.895,3.598 -0.34,-0.238 -0.703,-0.496 -1.004,-0.723 z m 3.769,3.282 c -0.91,-0.856 -1.855,-1.704 -2.765,-2.559 1.047,0.742 2.148,1.543 2.765,2.559 z M 559.508,436.559 c 2.07,9.488 3.328,19.004 3.027,28.554 -0.781,-9.508 -1.738,-19.062 -3.027,-28.554 z m 3.015,31.546 c 0.071,-1 -0.019,-1.996 0.012,-2.992 0.145,1.739 0.281,3.473 0.41,5.203 -0.129,-0.753 -0.265,-1.515 -0.422,-2.211 z M 546.527,381.34 c 6.536,17.43 10.411,36.183 12.981,55.219 -4.024,-18.473 -10.684,-36.848 -12.981,-55.219 z m 20.911,80.644 c -2.911,-26.652 -10.118,-51.847 -17.305,-77.05 10.801,32.402 21.59,64.804 20.859,100.976 -1.074,-7.863 -2.226,-15.82 -3.554,-23.926 z m 105.781,27.442 c -0.879,-1.973 -2.727,-3.34 -3.926,-5.051 -21.973,-41.844 -61.563,-70.633 -86.758,-110.242 32.403,36.004 64.785,75.605 93.594,115.203 0,0 -3.594,0 -2.91,0.09 z m -85.977,2.742 c -4.707,-35.234 -22.715,-71.238 -29.922,-107.234 10.809,39.597 28.809,75.593 31.864,115.886 -0.079,-2.937 -1.231,-5.925 -1.942,-8.652 z m 55.274,4.348 c -23.985,-39.582 -45.586,-79.18 -70.793,-115.176 28.808,39.59 54.004,79.187 74.59,121.902 -1.004,-2.351 -2.54,-4.531 -3.797,-6.726 z m -24.961,10.078 c -17.024,-38.86 -35.02,-82.063 -53.028,-121.66 21.602,39.597 43.203,79.199 54.746,121.191 -0.578,0.164 -1.144,0.32 -1.718,0.469"
         id="path22"
         style="fill:#231f20;fill-opacity:1;fill-rule:evenodd;stroke:none" /><path
         d="m 86.6016,381.68 c 1.2148,6.894 6.3007,10.754 12.2265,10.754 2.6249,0 6.5309,-2.071 7.8909,-4.551 l 33.418,-58.32 0.285,0 9.187,52.117 c 1.215,6.894 6.297,10.754 12.227,10.754 5.937,0 9.664,-3.86 8.445,-10.754 l -13.804,-78.317 c -1.219,-6.894 -6.301,-10.75 -12.239,-10.75 -2.617,0 -6.386,2.067 -7.883,4.551 l -33.539,57.633 -0.281,0 -9.0662,-51.434 c -1.2188,-6.894 -6.3008,-10.75 -12.2383,-10.75 -5.9297,0 -9.6524,3.856 -8.4375,10.75 l 13.8086,78.317"
         id="path24"
         style="fill:#231f20;fill-opacity:1;fill-rule:nonzero;stroke:none" /><path
         d="m 187.777,329.977 c -1.672,-9.512 1.446,-19.997 12.2,-19.997 10.75,0 17.562,10.485 19.238,19.997 1.676,9.511 -1.25,20.261 -12.141,20.261 -10.886,0 -17.621,-10.75 -19.297,-20.261 z m 51.289,0 c -3.644,-20.68 -20.929,-38.196 -42.296,-38.196 -21.372,0 -32.493,17.516 -28.844,38.196 3.551,20.125 21.398,38.464 42.355,38.464 20.957,0 32.336,-18.339 28.785,-38.464"
         id="path26"
         style="fill:#231f20;fill-opacity:1;fill-rule:nonzero;stroke:none" /><path
         d="m 250.715,357.691 c 1.164,6.618 6.98,9.926 11.941,9.926 5.242,0 9.317,-1.933 8.203,-8.269 l 0.274,0 c 4.691,5.511 9.172,8.269 15.383,8.269 4.824,0 9.043,-3.453 7.777,-10.621 -1.145,-6.476 -7.145,-6.894 -13.563,-9.652 -6.41,-2.75 -12.937,-5.375 -14.324,-13.231 l -5.371,-30.468 c -1.168,-6.618 -6.086,-11.032 -11.875,-11.032 -5.793,0 -9.144,4.414 -7.976,11.032 l 9.531,54.046"
         id="path28"
         style="fill:#231f20;fill-opacity:1;fill-rule:nonzero;stroke:none" /><path
         d="m 306.891,349.41 -4.414,0 c -5.383,0 -8.102,3.309 -7.149,8.695 0.871,4.961 5.246,8.688 10.207,8.688 l 4.414,0 1.805,10.199 c 2.57,14.61 12.672,22.613 24.809,22.613 7.031,0 13.414,-2.07 12.199,-8.964 -1.024,-5.786 -4.106,-8.414 -9.621,-8.414 -3.301,0 -6.614,0 -7.903,-7.301 l -1.433,-8.133 6.203,0 c 5.926,0 9.656,-2.348 8.539,-8.688 -1.102,-6.21 -5.813,-8.695 -11.602,-8.695 l -6.203,0 -8.07,-45.765 c -1.168,-6.618 -6.082,-11.032 -11.875,-11.032 -5.789,0 -9.145,4.414 -7.981,11.032 l 8.075,45.765"
         id="path30"
         style="fill:#231f20;fill-opacity:1;fill-rule:nonzero;stroke:none" /><path
         d="m 356.664,329.977 c -1.676,-9.512 1.445,-19.997 12.199,-19.997 10.75,0 17.563,10.485 19.239,19.997 1.671,9.511 -1.25,20.261 -12.141,20.261 -10.887,0 -17.621,-10.75 -19.297,-20.261 z m 51.289,0 c -3.644,-20.68 -20.933,-38.196 -42.301,-38.196 -21.367,0 -32.488,17.516 -28.839,38.196 3.546,20.125 21.402,38.464 42.359,38.464 20.957,0 32.332,-18.339 28.781,-38.464"
         id="path32"
         style="fill:#231f20;fill-opacity:1;fill-rule:nonzero;stroke:none" /><path
         d="m 422.98,388.574 c 1.168,6.617 6.083,11.031 11.875,11.031 5.786,0 9.145,-4.414 7.993,-11.031 l -14.989,-84.929 c -1.16,-6.618 -6.082,-11.032 -11.875,-11.032 -5.789,0 -9.144,4.414 -7.976,11.032 l 14.972,84.929"
         id="path34"
         style="fill:#231f20;fill-opacity:1;fill-rule:nonzero;stroke:none" /><path
         d="m 450.426,388.574 c 1.152,6.617 6.074,11.031 11.855,11.031 5.801,0 9.16,-4.414 7.989,-11.031 l -8.165,-46.328 25.508,21.09 c 3.692,3.043 7.09,4.281 9.707,4.281 4.961,0 7.598,-4.551 6.817,-8.965 -0.508,-2.894 -1.875,-5.238 -5.235,-7.855 l -20.41,-15.723 18.477,-27.297 c 1.426,-2.062 1.699,-4.414 1.308,-6.617 -0.918,-5.242 -5.781,-9.379 -11.015,-9.379 -3.594,0 -5.957,2.207 -8.438,6.071 l -19.004,29.921 -0.273,0 -4.258,-24.128 c -1.152,-6.618 -6.074,-11.032 -11.875,-11.032 -5.785,0 -9.137,4.414 -7.976,11.032 l 14.988,84.929"
         id="path36"
         style="fill:#231f20;fill-opacity:1;fill-rule:nonzero;stroke:none" /><path
         d="m 154.961,85.5859 10.754,0 c 6.758,0 11.875,3.9922 13.09,10.8985 1.14,6.4766 -3.383,9.7856 -9.45,9.7856 l -10.75,0 -3.644,-20.6841 z m -7.246,-41.082 16.269,0 c 7.442,0 13.711,4.2734 15.075,12 1.14,6.4649 -3.043,10.8789 -12.692,10.8789 l -14.621,0 -4.031,-22.8789 z m -8.406,69.6291 c 1.164,6.609 6.375,10.332 12.722,10.332 l 26.465,0 c 14.348,0 24.223,-9.641 21.649,-24.262 -1.704,-9.6444 -6.848,-16.1327 -16.395,-20.2616 l -0.051,-0.2851 c 11.43,-1.6485 18.938,-11.4415 16.824,-23.4336 -3.429,-19.4375 -18.242,-29.9219 -37.265,-29.9219 l -28.399,0 c -6.347,0 -10.332,4.0039 -9.191,10.4844 l 13.641,77.3478"
         id="path38"
         style="fill:#231f20;fill-opacity:1;fill-rule:nonzero;stroke:none" /><path
         d="m 238.008,42.8438 c 10.344,0 17.152,10.4843 18.828,20 1.68,9.5117 -1.25,20.2617 -11.731,20.2617 -10.894,0 -17.617,-10.75 -19.292,-20.2617 -1.676,-9.5157 1.445,-20 12.195,-20 z m 34.379,-4.4063 c -0.899,-5.1094 -2.285,-12.957 -11.797,-12.957 -5.789,0 -7.57,3.1718 -8.031,8.3984 -6.172,-6.0586 -12.934,-9.2305 -20.524,-9.2305 -18.601,0 -30.015,15.8594 -26.078,38.1954 3.844,21.7734 21.406,38.4652 39.602,38.4652 7.312,0 13.968,-2.9027 17.289,-9.102 1.394,4.8243 6.144,8.273 10.968,8.273 9.512,0 8.125,-7.8511 7.231,-12.9605 l -8.66,-49.082"
         id="path40"
         style="fill:#231f20;fill-opacity:1;fill-rule:nonzero;stroke:none" /><path
         d="m 323.977,83.1055 c -10.344,0 -17.372,-10.8867 -19.028,-20.2617 -1.625,-9.2383 1.582,-20 11.926,-20 10.891,0 17.52,11.0351 19.223,20.6914 1.707,9.6406 -1.508,19.5703 -12.121,19.5703 z m 27.211,-46.6016 c -1.168,-6.6094 -6.086,-11.0234 -11.875,-11.0234 -5.508,0 -8.153,3.0273 -8.461,8.2695 -4.797,-6.0742 -13.055,-9.1016 -19.813,-9.1016 -19.988,0 -29.394,18.6133 -26.09,37.3633 3.406,19.2969 17.551,39.2973 38.93,39.2973 6.891,0 13.226,-2.3442 17.664,-6.8949 l 4.766,27.0239 c 1.168,6.621 6.078,11.035 11.871,11.035 5.789,0 9.148,-4.414 7.98,-11.035 L 351.188,36.5039"
         id="path42"
         style="fill:#231f20;fill-opacity:1;fill-rule:nonzero;stroke:none" /><path
         d="m 371.832,89.4531 c 1.164,6.6133 6.078,11.0269 11.867,11.0269 5.11,0 7.934,-2.7534 7.789,-7.4448 5.746,5.2382 12.633,8.2738 19.938,8.2738 8.269,0 14.691,-3.4574 18.769,-10.0707 6.625,6.3515 15.973,10.0707 22.731,10.0707 16.133,0 25.508,-9.3754 22.441,-26.7465 l -6.711,-38.0586 c -1.16,-6.6094 -6.082,-11.0234 -11.875,-11.0234 -5.789,0 -9.148,4.414 -7.976,11.0234 l 6.101,34.6094 c 1.418,8 -2,13.6445 -9.168,13.6445 -7.308,0 -12.718,-5.6445 -14.133,-13.6445 l -6.101,-34.6094 c -1.168,-6.6094 -6.086,-11.0234 -11.875,-11.0234 -5.793,0 -9.149,4.414 -7.981,11.0234 l 6.106,34.6094 c 1.41,8 -2.008,13.6445 -9.176,13.6445 -8.137,0 -12.715,-5.6445 -14.125,-13.6445 l -6.105,-34.6094 c -1.164,-6.6094 -6.082,-11.0234 -11.875,-11.0234 -5.789,0 -9.145,4.414 -7.977,11.0234 l 9.336,52.9492"
         id="path44"
         style="fill:#231f20;fill-opacity:1;fill-rule:nonzero;stroke:none" /><path
         d="m 515.406,119.363 c -1.093,-6.199 -6.992,-11.441 -13.203,-11.441 -5.918,0 -10.215,5.379 -9.14,11.441 0.996,5.657 7.156,10.891 13.085,10.891 5.926,0 10.274,-5.098 9.258,-10.891 z M 489.027,89.4531 c 1.164,6.6133 6.086,11.0269 11.868,11.0269 5.8,0 9.16,-4.4136 7.988,-11.0269 l -9.336,-52.9492 c -1.172,-6.6094 -6.086,-11.0234 -11.875,-11.0234 -5.793,0 -9.141,4.414 -7.981,11.0234 l 9.336,52.9492"
         id="path46"
         style="fill:#231f20;fill-opacity:1;fill-rule:nonzero;stroke:none" /><path
         d="m 519.906,89.4531 c 1.164,6.6133 6.086,11.0269 11.867,11.0269 5.118,0 7.93,-2.7534 7.813,-7.3042 4.805,5.3711 11.23,8.1332 20.605,8.1332 15.586,0 25.411,-9.9223 22.442,-26.7465 l -6.699,-38.0586 c -1.172,-6.6094 -6.094,-11.0234 -11.895,-11.0234 -5.781,0 -9.141,4.414 -7.969,11.0234 l 6.094,34.6094 c 1.641,9.2383 -3.379,13.6445 -10.547,13.6445 -8.125,0 -13.73,-5.9297 -15.09,-13.6445 l -6.101,-34.6094 c -1.172,-6.6094 -6.086,-11.0234 -11.875,-11.0234 -5.793,0 -9.141,4.414 -7.981,11.0234 l 9.336,52.9492"
         id="path48"
         style="fill:#231f20;fill-opacity:1;fill-rule:nonzero;stroke:none" /><path
         d="m 600.133,82.2773 -4.414,0 c -5.371,0 -8.106,3.3086 -7.149,8.6915 0.879,4.9609 5.254,8.6796 10.215,8.6796 l 4.414,0 2.09,11.8676 c 1.152,6.609 6.074,11.011 11.856,11.011 5.8,0 9.16,-4.402 7.988,-11.011 l -2.09,-11.8676 5.664,0 c 5.098,0 9.082,-2.3437 7.969,-8.6796 -1.094,-6.211 -5.938,-8.6915 -11.035,-8.6915 l -5.664,0 -8.067,-45.7734 c -1.172,-6.6094 -6.094,-11.0234 -11.875,-11.0234 -5.781,0 -9.14,4.414 -7.969,11.0234 l 8.067,45.7734"
         id="path50"
         style="fill:#231f20;fill-opacity:1;fill-rule:nonzero;stroke:none" /><path
         d="m 649.645,62.8438 c -1.68,-9.5157 1.445,-20 12.187,-20 10.762,0 17.559,10.4843 19.238,20 1.68,9.5117 -1.25,20.2617 -12.129,20.2617 -10.898,0 -17.617,-10.75 -19.296,-20.2617 z m 51.289,0 c -3.653,-20.6875 -20.938,-38.1954 -42.305,-38.1954 -21.367,0 -32.481,17.5079 -28.848,38.1954 3.555,20.125 21.407,38.4652 42.364,38.4652 20.957,0 32.324,-18.3402 28.789,-38.4652"
         id="path52"
         style="fill:#231f20;fill-opacity:1;fill-rule:nonzero;stroke:none" /><path
         d="m 714.039,89.4531 c 1.172,6.6133 6.074,11.0269 11.875,11.0269 5.098,0 7.93,-2.7534 7.813,-7.3042 4.804,5.3711 11.23,8.1332 20.605,8.1332 15.566,0 25.391,-9.9223 22.441,-26.7465 l -6.718,-38.0586 c -1.172,-6.6094 -6.094,-11.0234 -11.875,-11.0234 -5.801,0 -9.141,4.414 -7.969,11.0234 l 6.094,34.6094 c 1.621,9.2383 -3.379,13.6445 -10.547,13.6445 -8.145,0 -13.731,-5.9297 -15.098,-13.6445 l -6.094,-34.6094 c -1.171,-6.6094 -6.093,-11.0234 -11.894,-11.0234 -5.781,0 -9.141,4.414 -7.969,11.0234 l 9.336,52.9492"
         id="path54"
         style="fill:#231f20;fill-opacity:1;fill-rule:nonzero;stroke:none" /><path
         d="M 0,3.86719 6.85938,42.7734 c 5.75392,-1.7773 10.94922,-2.6171 15.56252,-2.6171 8.5469,0 15.0742,2.3437 19.6015,7.0703 4.5391,4.7461 7.8633,13.0859 9.9649,25 l 30.375,172.2854 -21.9024,0 5.2696,29.918 97.1175,0 -5.282,-29.918 -19.226,0 L 107.613,70.2344 C 103.402,46.3477 94.4961,28.6914 80.8828,17.207 67.2852,5.74219 50.8555,0 31.5977,0 21.9141,0 11.3828,1.28906 0,3.86719"
         id="path56"
         style="fill:#ed1c24;fill-opacity:1;fill-rule:nonzero;stroke:none" /><path
         d="m 314.141,174.27 -5.274,-29.915 -62.535,0 1.949,11.055 c -13.988,-8.68 -27.406,-13.047 -40.211,-13.047 -12.547,0 -21.757,3.555 -27.648,10.586 -5.887,7.051 -7.688,16.992 -5.422,29.844 l 10.883,61.719 -19.535,0 5.277,29.918 60.914,0 -14.281,-81.032 c -1.141,-6.445 -0.934,-10.859 0.621,-13.242 1.547,-2.375 4.934,-3.554 10.144,-3.554 6.989,0 15.2,3.086 24.629,9.265 l 10.34,58.645 -20.066,0 5.277,29.918 61.633,0 -17.656,-100.16 20.961,0"
         id="path58"
         style="fill:#ed1c24;fill-opacity:1;fill-rule:nonzero;stroke:none" /><path
         d="m 334.605,244.512 5.274,29.918 61.461,0 -2.152,-12.184 c 14.187,9.43 27.707,14.152 40.593,14.152 26.192,0 36.348,-16.75 30.438,-50.265 l -9.149,-51.863 19.707,0 -5.273,-29.915 -61.27,0 13.875,78.692 c 1.246,7.09 1.137,11.918 -0.316,14.523 -1.461,2.59 -4.359,3.891 -8.73,3.891 -7.676,0 -16.02,-2.824 -25.036,-8.473 l -10.355,-58.718 20.074,0 -5.273,-29.915 -81.532,0 5.278,29.915 19.89,0 12.387,70.242 -19.891,0"
         id="path60"
         style="fill:#ed1c24;fill-opacity:1;fill-rule:nonzero;stroke:none" /><path
         d="m 499.996,244.512 5.274,29.918 61.289,0 -17.668,-100.16 19.347,0 -5.273,-29.915 -80.637,0 5.274,29.915 19.718,0 12.383,70.242 -19.707,0"
         id="path62"
         style="fill:#ed1c24;fill-opacity:1;fill-rule:nonzero;stroke:none" /><path
         d="m 635.336,173.555 c 7.695,0 14.484,2.949 20.305,8.847 5.82,5.887 9.851,15.137 12.078,27.754 1.953,11.055 1.164,19.727 -2.41,25.93 -3.567,6.199 -9.336,9.32 -17.305,9.32 -17.109,0 -27.832,-12.32 -32.199,-37.008 -1.785,-10.097 -1.102,-18.418 1.984,-24.992 3.094,-6.57 8.945,-9.851 17.547,-9.851 z m -5.555,-32.246 c -19.199,0 -34.316,6.054 -45.39,18.183 -11.094,12.149 -14.766,28.762 -11.047,49.895 3.722,21.14 13.273,37.761 28.633,49.898 15.363,12.117 32.628,18.195 51.808,18.195 19.285,0 34.434,-6.078 45.469,-18.195 11.035,-12.137 14.707,-28.758 10.976,-49.898 -3.683,-20.871 -13.105,-37.414 -28.332,-49.68 -15.203,-12.266 -32.585,-18.398 -52.117,-18.398"
         id="path64"
         style="fill:#ed1c24;fill-opacity:1;fill-rule:nonzero;stroke:none" /><path
         d="m 796.598,174.27 -5.274,-29.915 -91.543,0 5.274,29.915 24.004,0 12.382,70.242 -22.578,0 5.274,29.918 60.742,0 -5.84,-33.145 c 4.004,9.492 10.762,17.735 20.274,24.676 9.5,6.965 19.882,10.437 31.152,10.437 1.894,0 4.121,-0.039 6.699,-0.136 l -6.914,-39.285 c -10.508,0 -19.277,-1.161 -26.32,-3.497 -7.039,-2.328 -13.407,-7.425 -19.11,-15.304 -5.703,-7.863 -9.484,-17.199 -11.367,-27.922 l -2.832,-15.984 25.977,0"
         id="path66"
         style="fill:#ed1c24;fill-opacity:1;fill-rule:nonzero;stroke:none" /></g></g></svg>