<?xml version="1.0" encoding="UTF-8" standalone="no"?>
<!-- Created with Inkscape (http://www.inkscape.org/) -->

<svg
   xmlns:dc="http://purl.org/dc/elements/1.1/"
   xmlns:cc="http://creativecommons.org/ns#"
   xmlns:rdf="http://www.w3.org/1999/02/22-rdf-syntax-ns#"
   xmlns:svg="http://www.w3.org/2000/svg"
   xmlns="http://www.w3.org/2000/svg"
   xmlns:sodipodi="http://sodipodi.sourceforge.net/DTD/sodipodi-0.dtd"
   xmlns:inkscape="http://www.inkscape.org/namespaces/inkscape"
   width="542.11353mm"
   height="269.13782mm"
   viewBox="0 0 1920.8747 953.63793"
   id="svg4207"
   version="1.1"
   inkscape:version="0.91 r13725"
   sodipodi:docname="junior_logo.svg">
  <defs
     id="defs4209" />
  <sodipodi:namedview
     id="base"
     pagecolor="#ffffff"
     bordercolor="#666666"
     borderopacity="1.0"
     inkscape:pageopacity="0.0"
     inkscape:pageshadow="2"
     inkscape:zoom="0.175"
     inkscape:cx="374.02334"
     inkscape:cy="217.90341"
     inkscape:document-units="px"
     inkscape:current-layer="layer1"
     showgrid="false"
     fit-margin-top="0"
     fit-margin-left="0"
     fit-margin-right="0"
     fit-margin-bottom="0"
     inkscape:window-width="1920"
     inkscape:window-height="1018"
     inkscape:window-x="1432"
     inkscape:window-y="-8"
     inkscape:window-maximized="1" />
  <metadata
     id="metadata4212">
    <rdf:RDF>
      <cc:Work
         rdf:about="">
        <dc:format>image/svg+xml</dc:format>
        <dc:type
           rdf:resource="http://purl.org/dc/dcmitype/StillImage" />
        <dc:title></dc:title>
      </cc:Work>
    </rdf:RDF>
  </metadata>
  <g
     inkscape:label="Layer 1"
     inkscape:groupmode="layer"
     id="layer1"
     transform="translate(1016.2119,173.02818)">
    <path
       style="opacity:1;fill:#000000;fill-opacity:1;stroke:none;stroke-width:3;stroke-linejoin:round;stroke-miterlimit:4;stroke-dasharray:none"
       d="m -124.14647,780.19956 c 0,-0.61392 9.45314,-12.09627 21.00697,-25.51635 53.027118,-61.5924 94.4055328,-121.45686 120.108525,-173.76769 18.730103,-38.11955 26.295048,-58.70907 34.360145,-93.51785 4.93597,-21.30344 5.748569,-29.33235 5.862633,-57.92427 0.09957,-24.97586 -0.818573,-37.55804 -3.709107,-50.82647 C 45.669963,342.784 31.175262,311.04092 7.0652641,276.99399 -7.7283671,256.1032 -59.504763,202.65339 -82.17282,184.87173 c -7.135935,-5.59769 -12.593666,-10.5584 -12.128301,-11.02377 1.529692,-1.52969 33.108664,10.17685 49.254747,18.25906 48.2384695,24.14665 107.425409,92.90656 132.890444,154.38439 11.241483,22.69091 12.94,45.94976 12.58875,73.64651 -0.32812,23.64497 -4.859701,61.3189 -29.605312,117.32807 -17.428877,39.44849 -26.627705,56.72389 -45.465304,85.38369 -23.8663623,36.31067 -43.458299,60.58363 -74.7269,92.58097 -30.544559,31.25649 -74.781774,69.57056 -74.781774,64.76891 z"
       id="path4190"
       inkscape:connector-curvature="0"
       sodipodi:nodetypes="ssssssssssccssss" />
    <path
       style="opacity:1;fill:#000000;fill-opacity:1;stroke:none;stroke-width:3;stroke-linejoin:round;stroke-miterlimit:4;stroke-dasharray:none"
       d="m 185.77202,508.1197 c -24.74383,-34.17863 -53.56367,-87.19871 -63.93377,-117.61946 -10.5806,-31.03819 -14.27521,-53.7195 -14.26521,-87.57437 0.0212,-72.73337 25.57867,-129.7345 84.64383,-188.78398 C 249.42088,56.953098 332.6118,3.5676487 397.00161,-17.272888 c 59.9913,-21.512201 157.20332,-22.507651 186.52918,-89.231092 10.47162,-28.79616 -16.20463,-57.85972 -43.00543,-58.38104 -51.72101,0 -116.35022,61.21069 -103.51893,98.04337 1.68532,4.837754 3.07781,9.496106 3.09442,10.351839 0.0695,3.574916 -7.91277,1.164196 -12.57413,-3.79762 -12.51965,-13.326565 -2.47233,-45.514839 21.941,-70.291339 42.11911,-42.74574 95.03428,-54.57841 130.694,-29.22528 13.6899,9.73313 20.75688,19.96934 20.77044,33.63199 0.0212,21.76606 -10.21677,44.619111 -26.94099,57.308997 -18.59722,14.111068 -42.6365,27.699068 -96.51825,39.839826 C 432.70103,-18.935118 405.68969,-9.8549715 372.70818,6.1946324 290.15054,46.369149 213.47939,118.35449 178.18894,188.8257 c -19.26526,38.47063 -28.27091,74.77376 -29.92789,120.64392 -1.98001,54.81112 7.38737,104.26785 30.65477,161.84769 17.11634,42.35778 18.71069,46.70835 17.95174,48.98526 -0.39448,1.18382 -5.38761,-4.29849 -11.09554,-12.18287 z"
       id="path4192"
       inkscape:connector-curvature="0"
       sodipodi:nodetypes="sssscccscssscsssssscs" />
    <ellipse
       style="opacity:1;fill:#000000;fill-opacity:1;stroke:none;stroke-width:3;stroke-linejoin:round;stroke-miterlimit:4;stroke-dasharray:none"
       id="path4765"
       cx="64.603531"
       cy="177.57405"
       rx="44.82143"
       ry="55.178574" />
    <text
       xml:space="preserve"
       style="font-style:normal;font-weight:normal;font-size:176.54997253px;line-height:125%;font-family:sans-serif;letter-spacing:0px;word-spacing:0px;fill:#000000;fill-opacity:1;stroke:none;stroke-width:1px;stroke-linecap:butt;stroke-linejoin:miter;stroke-opacity:1"
       x="-837.47845"
       y="459.82309"
       id="text3344"
       sodipodi:linespacing="125%"
       transform="scale(1.2324479,0.81139332)"><tspan
         sodipodi:role="line"
         id="tspan3346"
         x="-837.47845"
         y="459.82309"
         style="font-style:normal;font-variant:normal;font-weight:bold;font-stretch:normal;font-family:'Trebuchet MS';-inkscape-font-specification:'Trebuchet MS Bold'">NORFOLK</tspan></text>
    <text
       xml:space="preserve"
       style="font-style:normal;font-weight:normal;font-size:166.55259705px;line-height:125%;font-family:sans-serif;letter-spacing:0px;word-spacing:0px;fill:#000000;fill-opacity:1;stroke:none;stroke-width:1px;stroke-linecap:butt;stroke-linejoin:miter;stroke-opacity:1"
       x="184.63428"
       y="434.01123"
       id="text3344-1"
       sodipodi:linespacing="125%"
       transform="scale(1.1626589,0.86009749)"><tspan
         sodipodi:role="line"
         id="tspan3346-3"
         x="184.63428"
         y="434.01123"
         style="font-style:normal;font-variant:normal;font-weight:bold;font-stretch:normal;font-family:'Trebuchet MS';-inkscape-font-specification:'Trebuchet MS Bold'">JUNIOR</tspan></text>
    <text
       xml:space="preserve"
       style="font-style:normal;font-weight:normal;font-size:166.55259705px;line-height:125%;font-family:sans-serif;letter-spacing:0px;word-spacing:0px;fill:#000000;fill-opacity:1;stroke:none;stroke-width:1px;stroke-linecap:butt;stroke-linejoin:miter;stroke-opacity:1"
       x="192.43417"
       y="546.73608"
       id="text3344-1-6"
       sodipodi:linespacing="125%"
       transform="scale(1.1626589,0.86009749)"><tspan
         sodipodi:role="line"
         id="tspan3346-3-1"
         x="192.43417"
         y="546.73608"
         style="font-style:normal;font-variant:normal;font-weight:bold;font-stretch:normal;font-size:80px;font-family:'Trebuchet MS';-inkscape-font-specification:'Trebuchet MS Bold';letter-spacing:10px;word-spacing:0px">ASSOCIATION</tspan></text>
    <text
       xml:space="preserve"
       style="font-style:normal;font-weight:normal;font-size:166.55259705px;line-height:125%;font-family:sans-serif;letter-spacing:0px;word-spacing:0px;fill:#000000;fill-opacity:1;stroke:none;stroke-width:1px;stroke-linecap:butt;stroke-linejoin:miter;stroke-opacity:1"
       x="-548.19202"
       y="543.237"
       id="text3344-1-6-9"
       sodipodi:linespacing="125%"
       transform="scale(1.1626589,0.86009749)"><tspan
         sodipodi:role="line"
         id="tspan3346-3-1-4"
         x="-548.19202"
         y="543.237"
         style="font-style:normal;font-variant:normal;font-weight:bold;font-stretch:normal;font-size:80px;font-family:'Trebuchet MS';-inkscape-font-specification:'Trebuchet MS Bold';letter-spacing:10px;word-spacing:0px">BADMINTON</tspan></text>
  </g>
</svg>
